<svg version="1.1" viewBox="0.0 0.0 322.75853018372703 307.33858267716533" fill="none" stroke="none" stroke-linecap="square" stroke-miterlimit="10" xmlns:xlink="http://www.w3.org/1999/xlink" xmlns="http://www.w3.org/2000/svg"><clipPath id="p.0"><path d="m0 0l322.75854 0l0 307.3386l-322.75854 0l0 -307.3386z" clip-rule="nonzero"/></clipPath><g clip-path="url(#p.0)"><path fill="#000000" fill-opacity="0.0" d="m0 0l322.75854 0l0 307.3386l-322.75854 0z" fill-rule="evenodd"/><path fill="#000000" fill-opacity="0.0" d="m105.82021 54.171917l169.95276 99.49606l-169.95276 99.49606z" fill-rule="evenodd"/><path stroke="#000000" stroke-width="3.0" stroke-linejoin="round" stroke-linecap="butt" d="m105.82021 54.171917l169.95276 99.49606l-169.95276 99.49606z" fill-rule="evenodd"/><path fill="#000000" fill-opacity="0.0" d="m216.93832 253.16405l-169.95276 -99.49606l169.95276 -99.49606z" fill-rule="evenodd"/><path stroke="#000000" stroke-width="3.0" stroke-linejoin="round" stroke-linecap="butt" d="m216.93832 253.16405l-169.95276 -99.49606l169.95276 -99.49606z" fill-rule="evenodd"/><path fill="#000000" fill-opacity="0.0" d="m131.96713 153.66798l0 0c0 -15.733597 12.543076 -28.488197 28.015747 -28.488197l0 0c7.430237 0 14.556152 3.0014267 19.81012 8.344002c5.2539825 5.342575 8.205627 12.588654 8.205627 20.144196l0 0c0 15.733582 -12.543076 28.48819 -28.015747 28.48819l0 0c-15.4726715 0 -28.015747 -12.754608 -28.015747 -28.48819z" fill-rule="evenodd"/><path stroke="#000000" stroke-width="3.0" stroke-linejoin="round" stroke-linecap="butt" d="m131.96713 153.66798l0 0c0 -15.733597 12.543076 -28.488197 28.015747 -28.488197l0 0c7.430237 0 14.556152 3.0014267 19.81012 8.344002c5.2539825 5.342575 8.205627 12.588654 8.205627 20.144196l0 0c0 15.733582 -12.543076 28.48819 -28.015747 28.48819l0 0c-15.4726715 0 -28.015747 -12.754608 -28.015747 -28.48819z" fill-rule="evenodd"/></g></svg>
